<svg xmlns="http://www.w3.org/2000/svg" viewBox="0 0 48 48"><symbol id="New_Symbol_14" viewBox="-6.5 -6.5 13 13"><path fill="#ffd4c3" stroke="#504b46" stroke-linecap="round" stroke-linejoin="round" stroke-miterlimit="10" d="M0-6c2.2 0 4.1 1.5 4.7 3.5C6.3-2.5 6.4 0 5 0v1c0 2.8-2.2 5-5 5s-5-2.2-5-5V0c-1.4 0-1.3-2.5.2-2.5C-4.1-4.5-2.2-6 0-6z"/><circle cx="-1.6" cy="-.1" r=".1" fill="#ffc258"/><path fill="#4f4b45" d="M-1.6.5c-.3 0-.6-.3-.6-.6s.2-.7.6-.7c.3 0 .6.3.6.7s-.3.6-.6.6z"/><circle cx="1.6" cy="-.1" r=".1" fill="#ffc258"/><path fill="#4f4b45" d="M1.6.5C1.3.5 1 .2 1-.1s.3-.6.6-.6.6.3.6.6-.2.6-.6.6z"/><circle cx="-3" cy="-1.5" r=".5" fill="#fabfa5"/><circle cx="3" cy="-1.5" r=".5" fill="#fabfa5"/><path fill="none" stroke="#504b46" stroke-linecap="round" stroke-linejoin="round" stroke-miterlimit="10" d="M-1.2-3c.8-.5 1.7-.5 2.5 0"/></symbol><g id="Icons"><g id="XMLID_787_"><ellipse id="XMLID_2_" cx="23.8" cy="42.1" fill="#45413c" opacity=".15" rx="13.5" ry="1.5"/><path id="XMLID_38_" fill="#debb7e" stroke="#45413c" stroke-linecap="round" stroke-linejoin="round" stroke-miterlimit="10" d="M40.4 19.8l.3 1.4s-10.9 3.9-16.2 5c-6 1.3-15.6 2.1-18.7 2.6-1.6.2-3.2-.6-3.9-2l-.6-.8 38.8-7.6.3 1.4z"/><g id="XMLID_16_"><g id="XMLID_31_"><g id="XMLID_33_"><path id="XMLID_37_" fill="#f0d5a8" d="M40.4 19.8l-.5-2.4c-.7-3.7-9-8.1-19-7.1 0 0-1.9-3.4 1-4.6S45.8.5 46.6 16.5c.1 1.2-.8 2.3-2 2.5l-4.2.8z"/><path id="XMLID_36_" fill="#f7e5c6" d="M22 5.7c-1.9.8-1.8 2.5-1.4 3.6.3-.3.6-.6 1.2-.8 2.8-1.1 22.7-4.9 24.6 9.5.3-.4.4-.9.4-1.4C45.9.5 24.9 4.5 22 5.7z"/><path id="XMLID_35_" fill="#debb7e" d="M40.4 19.8l4.3-.8c1.2-.2 2.1-1.3 2-2.5-.1-1.5-.3-2.8-.7-4-.8-.3-1.7-.3-2.6-.2-2.3.4-4 2.3-3.6 4.1l-.1.1c.1.3.2.5.3.8l.4 2.5z"/><path id="XMLID_34_" fill="none" stroke="#45413c" stroke-linecap="round" stroke-linejoin="round" stroke-miterlimit="10" d="M40.4 19.8l-.5-2.4c-.7-3.7-9-8.1-19-7.1 0 0-1.9-3.4 1-4.6S45.8.5 46.6 16.5c.1 1.2-.8 2.3-2 2.5l-4.2.8z"/></g><path id="XMLID_32_" fill="none" stroke="#45413c" stroke-linecap="round" stroke-linejoin="round" stroke-miterlimit="10" d="M45.9 12.5c-.8-.3-1.7-.3-2.6-.2-2.3.4-4 2.3-3.6 4.1"/></g><path id="XMLID_30_" fill="none" stroke="#45413c" stroke-linecap="round" stroke-linejoin="round" stroke-miterlimit="10" d="M39.7 16.2l.2 1.2"/><g id="XMLID_22_"><path id="XMLID_29_" fill="#ffe500" d="M21 10.3l-19.3 14c-.4.3-.6.8-.5 1.2l.1.5.5 2.4c.1.7.8 1.1 1.4 1 .7-.1 1.1-.8 1-1.4L4 26.8l3.6-.8.3 1.8c.2 1 1.2 1.7 2.2 1.5 1-.2 1.7-1.2 1.5-2.2l-.3-1.8 17-3.2.2 1.2c.1.7.8 1.1 1.4 1 .7-.1 1.1-.8 1-1.4l-.2-1.2 6.1-1.1.3 1.8c.2 1 1.2 1.7 2.2 1.5 1-.2 1.7-1.2 1.5-2.2l-.8-4.3c-.8-3.7-9.1-8.1-19-7.1z"/><path id="XMLID_28_" fill="#ebcb00" d="M36.7 20.5l.3 1.8c.2 1 1.2 1.7 2.2 1.5 1-.2 1.7-1.2 1.5-2.2l-.8-4.3c-.7-3.7-9-8.1-19-7.1l-1.1.8c8.2.3 14.6 4 15.2 7.2l.5 2.4 1.2-.1z"/><path id="XMLID_27_" fill="none" stroke="#ebcb00" stroke-linecap="round" stroke-linejoin="round" stroke-miterlimit="10" d="M6.5 23.7L36.9 18"/><path id="XMLID_26_" fill="none" stroke="#45413c" stroke-linecap="round" stroke-linejoin="round" stroke-miterlimit="10" d="M30.7 21.7l-.3-1.3"/><path id="XMLID_25_" fill="none" stroke="#45413c" stroke-linecap="round" stroke-linejoin="round" stroke-miterlimit="10" d="M36.7 20.5l-.4-2.4"/><path id="XMLID_24_" fill="none" stroke="#45413c" stroke-linecap="round" stroke-linejoin="round" stroke-miterlimit="10" d="M21 10.3l-19.3 14c-.4.3-.6.8-.5 1.2l.1.5.5 2.4c.1.7.8 1.1 1.4 1 .7-.1 1.1-.8 1-1.4L4 26.8l3.6-.8.3 1.8c.2 1 1.2 1.7 2.2 1.5 1-.2 1.7-1.2 1.5-2.2l-.3-1.8 17-3.2.2 1.2c.1.7.8 1.1 1.4 1 .7-.1 1.1-.8 1-1.4l-.2-1.2 6.1-1.1.3 1.8c.2 1 1.2 1.7 2.2 1.5 1-.2 1.7-1.2 1.5-2.2l-.8-4.3c-.8-3.7-9.1-8.1-19-7.1z"/><path id="XMLID_23_" fill="none" stroke="#45413c" stroke-linecap="round" stroke-linejoin="round" stroke-miterlimit="10" d="M7.6 26l-.3-1.2"/></g><g id="XMLID_17_"><path id="XMLID_21_" fill="#ff6242" stroke="#45413c" stroke-linecap="round" stroke-linejoin="round" stroke-miterlimit="10" d="M18.3 16.4c2.3-.4 4-1.9 3.8-3.2-.2-1-1.3-1.6-2.8-1.7l-5.4 3.9c.7 1 2.5 1.4 4.4 1z"/><path id="XMLID_20_" fill="#ff6242" stroke="#45413c" stroke-linecap="round" stroke-linejoin="round" stroke-miterlimit="10" d="M34.5 18.4c.3-.4.4-.9.4-1.3-.3-1.3-2.4-2.1-4.7-1.6-2.3.4-4 1.9-3.8 3.2.1.4.4.8.8 1.1l7.3-1.4z"/><path id="XMLID_19_" fill="#ff6242" stroke="#45413c" stroke-linecap="round" stroke-linejoin="round" stroke-miterlimit="10" d="M10.2 23c.3-.4.4-.9.4-1.3-.2-1-1.4-1.6-2.9-1.7l-5.4 3.9c.1.2.3.4.6.5l7.3-1.4z"/><path id="XMLID_18_" fill="#ff6242" stroke="#45413c" stroke-linecap="round" stroke-linejoin="round" stroke-miterlimit="10" d="M24 20.4c-.7-1.3-2.9-2-5.2-1.5s-4.1 1.9-4.3 3.3l9.5-1.8z"/></g></g></g></g></svg>